# xmcd CD database file
#
# Track frame offsets:
#	160
#	31510
#	57272
#	82028
#	109495
#	147547
#	167477
#	191612
#	223847
#	256847
#
# Disc length: 3732 seconds
#
# Revision: 0
# Processed by: cddbd v1.5.2PL0 Copyright (c) Steve Scherf et al.
# Submitted via: CDex 1.70beta2
#
DISCID=8d0e920a
DTITLE=Great Jazz Trio - What's New
DYEAR=1998
DGENRE=Jazz
TTITLE0=What's New
TTITLE1=My Heart Will Go On
TTITLE2=You'd Be So Nice to Come Home to
TTITLE3=Wave
TTITLE4=Stardust
TTITLE5=Hello, Merry Christmas
TTITLE6=My Romance
TTITLE7=West Side Waltz
TTITLE8=Angel Eyes
TTITLE9=What's New
EXTD=YEAR: 1998
EXTT0=
EXTT1=
EXTT2=
EXTT3=
EXTT4=
EXTT5=
EXTT6=
EXTT7=
EXTT8=
EXTT9=
PLAYORDER=
